<?xml version="1.0" encoding="UTF-8" standalone="no"?>
<!DOCTYPE svg PUBLIC "-//W3C//DTD SVG 1.1//EN" "http://www.w3.org/Graphics/SVG/1.1/DTD/svg11.dtd">
<svg width="100%" height="100%" viewBox="0 0 20 20" version="1.1" xmlns="http://www.w3.org/2000/svg" xmlns:xlink="http://www.w3.org/1999/xlink" xml:space="preserve" xmlns:serif="http://www.serif.com/" style="fill-rule:evenodd;clip-rule:evenodd;stroke-linejoin:round;stroke-miterlimit:2;">
    <g transform="matrix(1,0,0,1,-160.734,-26.8534)">
        <g transform="matrix(2.07264,0,0,1.55447,-22.0616,2.00508)">
            <g id="NavDashboard-4Light" transform="matrix(0.482478,0,0,0.643304,33.5913,-1.14113)">
                <g id="Square" transform="matrix(2.18852,0,0,2.18852,-96.7516,-26.263)">
                    <rect x="95.921" y="24.165" width="9.139" height="9.139" style="fill:none;"/>
                </g>
                <g id="Dashboard" transform="matrix(2.40045,0,0,2.40045,-97.2888,21.4654)">
                    <g transform="matrix(0.0122047,0,0,0.0122047,88.7176,3.18976)">
                        <path d="M197.332,0C217.922,0 234.668,16.746 234.668,37.332L234.668,133.332C234.668,153.922 217.922,170.668 197.332,170.668L37.332,170.668C16.746,170.668 0,153.922 0,133.332L0,37.332C0,16.746 16.746,0 37.332,0L197.332,0ZM197.332,213.332C217.922,213.332 234.668,230.078 234.668,250.668L234.668,474.668C234.668,495.254 217.922,512 197.332,512L37.332,512C16.746,512 0,495.254 0,474.668L0,250.668C0,230.078 16.746,213.332 37.332,213.332L197.332,213.332ZM474.668,341.332C495.254,341.332 512,358.078 512,378.668L512,474.668C512,495.254 495.254,512 474.668,512L314.668,512C294.078,512 277.332,495.254 277.332,474.668L277.332,378.668C277.332,358.078 294.078,341.332 314.668,341.332L474.668,341.332ZM474.668,0C495.254,0 512,16.746 512,37.332L512,261.332C512,281.922 495.254,298.668 474.668,298.668L314.668,298.668C294.078,298.668 277.332,281.922 277.332,261.332L277.332,37.332C277.332,16.746 294.078,0 314.668,0L474.668,0Z" style="fill:none;stroke:white;stroke-opacity:0.09;stroke-width:102.4px;"/>
                    </g>
                    <g transform="matrix(0.0122047,0,0,0.0122047,88.7176,3.18976)">
                        <path d="M197.332,0L37.332,0C16.746,0 0,16.746 0,37.332L0,133.332C0,153.922 16.746,170.668 37.332,170.668L197.332,170.668C217.922,170.668 234.668,153.922 234.668,133.332L234.668,37.332C234.668,16.746 217.922,0 197.332,0Z" style="fill-rule:nonzero;"/>
                    </g>
                    <g transform="matrix(0.0122047,0,0,0.0122047,88.7176,3.18976)">
                        <path d="M197.332,213.332L37.332,213.332C16.746,213.332 0,230.078 0,250.668L0,474.668C0,495.254 16.746,512 37.332,512L197.332,512C217.922,512 234.668,495.254 234.668,474.668L234.668,250.668C234.668,230.078 217.922,213.332 197.332,213.332Z" style="fill-rule:nonzero;"/>
                    </g>
                    <g transform="matrix(0.0122047,0,0,0.0122047,88.7176,3.18976)">
                        <path d="M474.668,341.332L314.668,341.332C294.078,341.332 277.332,358.078 277.332,378.668L277.332,474.668C277.332,495.254 294.078,512 314.668,512L474.668,512C495.254,512 512,495.254 512,474.668L512,378.668C512,358.078 495.254,341.332 474.668,341.332Z" style="fill-rule:nonzero;"/>
                    </g>
                    <g transform="matrix(0.0122047,0,0,0.0122047,88.7176,3.18976)">
                        <path d="M474.668,0L314.668,0C294.078,0 277.332,16.746 277.332,37.332L277.332,261.332C277.332,281.922 294.078,298.668 314.668,298.668L474.668,298.668C495.254,298.668 512,281.922 512,261.332L512,37.332C512,16.746 495.254,0 474.668,0Z" style="fill-rule:nonzero;"/>
                    </g>
                </g>
            </g>
        </g>
    </g>
</svg>
