<?xml version="1.0" encoding="UTF-8" standalone="no"?>
<!DOCTYPE svg PUBLIC "-//W3C//DTD SVG 1.1//EN" "http://www.w3.org/Graphics/SVG/1.1/DTD/svg11.dtd">
<svg width="100%" height="100%" viewBox="0 0 20 20" version="1.1" xmlns="http://www.w3.org/2000/svg" xmlns:xlink="http://www.w3.org/1999/xlink" xml:space="preserve" xmlns:serif="http://www.serif.com/" style="fill-rule:evenodd;clip-rule:evenodd;stroke-linejoin:round;stroke-miterlimit:2;">
    <g transform="matrix(1,0,0,1,-210.52,-3.14161)">
        <g transform="matrix(2.07264,0,0,1.55447,-22.0616,2.00508)">
            <g id="NavItems-4Dark" transform="matrix(1,0,0,1.99258,-6.13318,-65.8084)">
                <g id="Square" transform="matrix(1.05591,0,0,0.706564,17.0645,16.3197)">
                    <rect x="95.921" y="24.165" width="9.139" height="9.139" style="fill:none;"/>
                </g>
                <g transform="matrix(0.0401261,0,0,0.0401261,116.283,34.2881)">
                    <path d="M224.328,8.158C235.832,8.158 245.252,14.461 245.252,22.21L245.252,104.461C245.252,112.21 235.832,118.513 224.328,118.513L119.091,118.513C107.51,118.513 98.168,112.21 98.168,104.461L98.168,22.21C98.168,14.461 107.51,8.158 119.091,8.158L128.667,8.158L128.667,15.236C128.667,23.605 138.857,30.425 151.443,30.425L191.978,30.425C204.562,30.425 214.754,23.605 214.754,15.236L214.754,8.158L224.328,8.158ZM206.57,98.932C210.817,98.932 214.291,96.607 214.291,93.766C214.291,90.873 210.817,88.599 206.57,88.599L176.072,88.599C171.826,88.599 168.351,90.873 168.351,93.766C168.351,96.607 171.826,98.932 176.072,98.932L206.57,98.932ZM144.957,98.932C149.204,98.932 152.678,96.607 152.678,93.766C152.678,90.873 149.204,88.599 144.957,88.599L136.85,88.599C132.603,88.599 129.129,90.873 129.129,93.766C129.129,96.607 132.603,98.932 136.85,98.932L144.957,98.932ZM144.957,76.82C149.204,76.82 152.678,74.547 152.678,71.653C152.678,68.812 149.204,66.487 144.957,66.487L136.85,66.487C132.603,66.487 129.129,68.812 129.129,71.653C129.129,74.547 132.603,76.82 136.85,76.82L144.957,76.82ZM206.57,76.82C210.817,76.82 214.291,74.547 214.291,71.653C214.291,68.812 210.817,66.487 206.57,66.487L176.072,66.487C171.826,66.487 168.351,68.812 168.351,71.653C168.351,74.547 171.826,76.82 176.072,76.82L206.57,76.82ZM144.957,54.759C149.204,54.759 152.678,52.434 152.678,49.592C152.678,46.751 149.204,44.426 144.957,44.426L136.85,44.426C132.603,44.426 129.129,46.751 129.129,49.592C129.129,52.434 132.603,54.759 136.85,54.759L144.957,54.759ZM206.57,54.759C210.817,54.759 214.291,52.434 214.291,49.592C214.291,46.751 210.817,44.426 206.57,44.426L176.072,44.426C171.826,44.426 168.351,46.751 168.351,49.592C168.351,52.434 171.826,54.759 176.072,54.759L206.57,54.759ZM199.312,2.733L199.312,15.339C199.312,18.026 195.992,20.196 191.977,20.196L151.442,20.196C147.35,20.196 144.108,18.026 144.108,15.339L144.108,2.733C144.108,-0.006 147.35,-2.175 151.442,-2.175L191.977,-2.175C195.992,-2.175 199.312,-0.006 199.312,2.733Z" style="fill:none;stroke:black;stroke-opacity:0.09;stroke-width:28.37px;"/>
                </g>
                <g transform="matrix(0.0401261,0,0,0.0401261,116.283,34.2881)">
                    <g transform="matrix(7.72092,0,0,5.16646,67.4771,-11.5783)">
                        <path d="M20.315,3.82L19.075,3.82L19.075,5.19C19.075,6.81 17.755,8.13 16.125,8.13L10.875,8.13C9.245,8.13 7.925,6.81 7.925,5.19L7.925,3.82L6.685,3.82C5.185,3.82 3.975,5.04 3.975,6.54L3.975,22.46C3.975,23.96 5.185,25.18 6.685,25.18L20.315,25.18C21.805,25.18 23.025,23.96 23.025,22.46L23.025,6.54C23.025,5.04 21.805,3.82 20.315,3.82ZM10.035,21.39L8.985,21.39C8.435,21.39 7.985,20.94 7.985,20.39C7.985,19.83 8.435,19.39 8.985,19.39L10.035,19.39C10.585,19.39 11.035,19.83 11.035,20.39C11.035,20.94 10.585,21.39 10.035,21.39ZM10.035,17.11L8.985,17.11C8.435,17.11 7.985,16.67 7.985,16.11C7.985,15.56 8.435,15.11 8.985,15.11L10.035,15.11C10.585,15.11 11.035,15.56 11.035,16.11C11.035,16.67 10.585,17.11 10.035,17.11ZM10.035,12.84L8.985,12.84C8.435,12.84 7.985,12.39 7.985,11.84C7.985,11.29 8.435,10.84 8.985,10.84L10.035,10.84C10.585,10.84 11.035,11.29 11.035,11.84C11.035,12.39 10.585,12.84 10.035,12.84ZM18.015,21.39L14.065,21.39C13.515,21.39 13.065,20.94 13.065,20.39C13.065,19.83 13.515,19.39 14.065,19.39L18.015,19.39C18.565,19.39 19.015,19.83 19.015,20.39C19.015,20.94 18.565,21.39 18.015,21.39ZM18.015,17.11L14.065,17.11C13.515,17.11 13.065,16.67 13.065,16.11C13.065,15.56 13.515,15.11 14.065,15.11L18.015,15.11C18.565,15.11 19.015,15.56 19.015,16.11C19.015,16.67 18.565,17.11 18.015,17.11ZM18.015,12.84L14.065,12.84C13.515,12.84 13.065,12.39 13.065,11.84C13.065,11.29 13.515,10.84 14.065,10.84L18.015,10.84C18.565,10.84 19.015,11.29 19.015,11.84C19.015,12.39 18.565,12.84 18.015,12.84Z" style="fill:white;fill-rule:nonzero;"/>
                    </g>
                    <g transform="matrix(7.72092,0,0,5.16646,67.4771,-11.5783)">
                        <path d="M17.075,2.77L17.075,5.21C17.075,5.73 16.645,6.15 16.125,6.15L10.875,6.15C10.345,6.15 9.925,5.73 9.925,5.21L9.925,2.77C9.925,2.24 10.345,1.82 10.875,1.82L16.125,1.82C16.645,1.82 17.075,2.24 17.075,2.77Z" style="fill:white;fill-rule:nonzero;"/>
                    </g>
                </g>
            </g>
        </g>
    </g>
</svg>
