<?xml version="1.0" encoding="UTF-8" standalone="no"?>
<!DOCTYPE svg PUBLIC "-//W3C//DTD SVG 1.1//EN" "http://www.w3.org/Graphics/SVG/1.1/DTD/svg11.dtd">
<svg width="100%" height="100%" viewBox="0 0 20 20" version="1.1" xmlns="http://www.w3.org/2000/svg" xmlns:xlink="http://www.w3.org/1999/xlink" xml:space="preserve" xmlns:serif="http://www.serif.com/" style="fill-rule:evenodd;clip-rule:evenodd;stroke-linejoin:round;stroke-miterlimit:2;">
    <g transform="matrix(1,0,0,1,-255.943,-26.8534)">
        <g transform="matrix(2.07264,0,0,1.55447,-22.0616,2.00508)">
            <g id="NavRoadmap-4Light" transform="matrix(1,0,0,1,15.7823,-14.2041)">
                <g id="Square" transform="matrix(1.05591,0,0,1.40788,17.0645,-3.83214)">
                    <rect x="95.921" y="24.165" width="9.139" height="9.139" style="fill:none;"/>
                </g>
                <g transform="matrix(0.0148626,0,0,0.0188468,119.369,31.7974)">
                    <path d="M437.096,512L21.009,512C12.282,512 9.262,499.184 16.89,494.507C119.566,431.568 260.498,328.032 126.147,245.771C11.44,175.539 109.296,96.895 194.622,49.046C221.511,31.461 249.549,16.579 271.715,5.745C279.459,1.96 287.828,0 296.297,0L352.354,0C356.343,0 357.504,6.01 353.857,7.795C275.813,46.007 154.193,120.191 364.982,185.337C547.617,241.782 505.71,403.884 460.806,496.341C456.122,505.987 447.012,512 437.096,512ZM194.337,203.784C196.523,203.784 198.696,202.861 200.225,201.069C202.996,197.819 202.606,192.939 199.356,190.169C196.228,187.503 193.315,184.781 190.699,182.081C187.728,179.014 182.834,178.935 179.766,181.907C176.698,184.878 176.62,189.773 179.592,192.84C182.549,195.892 185.824,198.953 189.325,201.937C190.781,203.177 192.563,203.784 194.337,203.784ZM164.402,159.356C164.93,159.356 165.467,159.302 166.006,159.187C170.185,158.306 172.857,154.204 171.976,150.026C171.317,146.901 170.983,143.714 170.983,140.546L170.999,139.326C171.116,135.057 167.75,131.502 163.481,131.385C159.224,131.286 155.657,134.634 155.54,138.903L155.518,140.554C155.518,144.785 155.964,149.046 156.844,153.218C157.612,156.859 160.824,159.356 164.402,159.356ZM177.873,108.162C180.269,108.162 182.631,107.053 184.143,104.965C186.344,101.926 188.84,98.856 191.562,95.84C194.423,92.669 194.173,87.78 191.003,84.919C187.831,82.056 182.942,82.309 180.082,85.478C176.989,88.904 174.141,92.409 171.617,95.895C169.112,99.353 169.886,104.188 173.345,106.692C174.715,107.684 176.301,108.162 177.873,108.162ZM240.155,233.18C242.976,233.18 245.696,231.63 247.058,228.942C248.989,225.133 247.466,220.48 243.657,218.549C239.915,216.652 236.261,214.714 232.797,212.787C229.064,210.709 224.357,212.053 222.281,215.786C220.205,219.518 221.548,224.226 225.28,226.302C228.916,228.324 232.747,230.357 236.665,232.343C237.786,232.911 238.979,233.18 240.155,233.18ZM341.594,347.113C345.587,347.113 348.972,344.04 349.292,339.991C349.49,337.502 349.59,334.996 349.59,332.546C349.591,330.447 349.517,328.332 349.372,326.258C349.073,321.998 345.368,318.784 341.118,319.086C336.859,319.385 333.647,323.08 333.946,327.34C334.066,329.054 334.127,330.805 334.126,332.544C334.126,334.59 334.043,336.684 333.877,338.769C333.539,343.026 336.717,346.75 340.974,347.088L341.594,347.113ZM288.565,258.262C291.104,258.262 293.592,257.012 295.07,254.719C297.384,251.13 296.351,246.345 292.762,244.03C289.218,241.745 285.461,239.478 281.596,237.293C277.879,235.192 273.161,236.501 271.06,240.219C268.959,243.936 270.268,248.654 273.986,250.755C277.591,252.793 281.089,254.903 284.382,257.027C285.677,257.863 287.129,258.262 288.565,258.262ZM324.191,398.39C326.868,398.39 329.471,396.997 330.901,394.51C333.141,390.617 335.208,386.692 337.048,382.847C338.891,378.995 337.263,374.378 333.41,372.535C329.558,370.692 324.941,372.321 323.098,376.173C321.426,379.668 319.54,383.244 317.495,386.803C315.367,390.505 316.642,395.232 320.345,397.36C321.559,398.058 322.884,398.39 324.191,398.39ZM328.086,295.326C329.55,295.326 331.031,294.911 332.344,294.042C335.906,291.686 336.883,286.889 334.528,283.327C332.105,279.664 329.354,276.031 326.35,272.53C323.569,269.288 318.688,268.915 315.447,271.696C312.206,274.477 311.833,279.358 314.613,282.599C317.2,285.614 319.56,288.729 321.629,291.858C323.117,294.107 325.578,295.326 328.086,295.326ZM256.006,474.787C257.635,474.787 259.277,474.274 260.675,473.213C260.753,473.154 262.619,471.736 265.752,469.144C269.042,466.423 269.504,461.549 266.782,458.258C264.062,454.968 259.187,454.506 255.896,457.228C253.041,459.589 251.341,460.883 251.327,460.894C247.925,463.476 247.26,468.326 249.841,471.728C251.362,473.733 253.67,474.787 256.006,474.787ZM217.804,71.339C219.259,71.338 220.73,70.929 222.037,70.071C224.983,68.139 226.824,67.081 226.875,67.052C230.582,64.937 231.875,60.218 229.762,56.509C227.649,52.798 222.926,51.503 219.216,53.618C219.127,53.669 216.976,54.898 213.557,57.14C209.985,59.482 208.989,64.275 211.331,67.846C212.816,70.11 215.285,71.339 217.804,71.339ZM291.42,441.935C293.496,441.935 295.567,441.104 297.09,439.462C300.052,436.269 302.944,433.018 305.686,429.799C308.456,426.548 308.065,421.668 304.814,418.899C301.564,416.129 296.684,416.52 293.914,419.771C291.313,422.825 288.568,425.911 285.754,428.944C282.849,432.074 283.032,436.967 286.163,439.871C287.652,441.252 289.538,441.935 291.42,441.935Z" style="fill:none;stroke:white;stroke-opacity:0.09;stroke-width:99.8px;"/>
                </g>
                <g transform="matrix(0.0148626,0,0,0.0188468,119.369,31.7974)">
                    <path d="M437.096,512L21.009,512C12.282,512 9.262,499.184 16.89,494.507C119.566,431.568 260.498,328.032 126.147,245.771C11.44,175.539 109.296,96.895 194.622,49.046C221.511,31.461 249.549,16.579 271.715,5.745C279.459,1.96 287.828,0 296.297,0L352.354,0C356.343,0 357.504,6.01 353.857,7.795C275.813,46.007 154.193,120.191 364.982,185.337C547.617,241.782 505.71,403.884 460.806,496.341C456.122,505.987 447.012,512 437.096,512ZM194.337,203.784C196.523,203.784 198.696,202.861 200.225,201.069C202.996,197.819 202.606,192.939 199.356,190.169C196.228,187.503 193.315,184.781 190.699,182.081C187.728,179.014 182.834,178.935 179.766,181.907C176.698,184.878 176.62,189.773 179.592,192.84C182.549,195.892 185.824,198.953 189.325,201.937C190.781,203.177 192.563,203.784 194.337,203.784ZM164.402,159.356C164.93,159.356 165.467,159.302 166.006,159.187C170.185,158.306 172.857,154.204 171.976,150.026C171.317,146.901 170.983,143.714 170.983,140.546L170.999,139.326C171.116,135.057 167.75,131.502 163.481,131.385C159.224,131.286 155.657,134.634 155.54,138.903L155.518,140.554C155.518,144.785 155.964,149.046 156.844,153.218C157.612,156.859 160.824,159.356 164.402,159.356ZM177.873,108.162C180.269,108.162 182.631,107.053 184.143,104.965C186.344,101.926 188.84,98.856 191.562,95.84C194.423,92.669 194.173,87.78 191.003,84.919C187.831,82.056 182.942,82.309 180.082,85.478C176.989,88.904 174.141,92.409 171.617,95.895C169.112,99.353 169.886,104.188 173.345,106.692C174.715,107.684 176.301,108.162 177.873,108.162ZM240.155,233.18C242.976,233.18 245.696,231.63 247.058,228.942C248.989,225.133 247.466,220.48 243.657,218.549C239.915,216.652 236.261,214.714 232.797,212.787C229.064,210.709 224.357,212.053 222.281,215.786C220.205,219.518 221.548,224.226 225.28,226.302C228.916,228.324 232.747,230.357 236.665,232.343C237.786,232.911 238.979,233.18 240.155,233.18ZM341.594,347.113C345.587,347.113 348.972,344.04 349.292,339.991C349.49,337.502 349.59,334.996 349.59,332.546C349.591,330.447 349.517,328.332 349.372,326.258C349.073,321.998 345.368,318.784 341.118,319.086C336.859,319.385 333.647,323.08 333.946,327.34C334.066,329.054 334.127,330.805 334.126,332.544C334.126,334.59 334.043,336.684 333.877,338.769C333.539,343.026 336.717,346.75 340.974,347.088L341.594,347.113ZM288.565,258.262C291.104,258.262 293.592,257.012 295.07,254.719C297.384,251.13 296.351,246.345 292.762,244.03C289.218,241.745 285.461,239.478 281.596,237.293C277.879,235.192 273.161,236.501 271.06,240.219C268.959,243.936 270.268,248.654 273.986,250.755C277.591,252.793 281.089,254.903 284.382,257.027C285.677,257.863 287.129,258.262 288.565,258.262ZM324.191,398.39C326.868,398.39 329.471,396.997 330.901,394.51C333.141,390.617 335.208,386.692 337.048,382.847C338.891,378.995 337.263,374.378 333.41,372.535C329.558,370.692 324.941,372.321 323.098,376.173C321.426,379.668 319.54,383.244 317.495,386.803C315.367,390.505 316.642,395.232 320.345,397.36C321.559,398.058 322.884,398.39 324.191,398.39ZM328.086,295.326C329.55,295.326 331.031,294.911 332.344,294.042C335.906,291.686 336.883,286.889 334.528,283.327C332.105,279.664 329.354,276.031 326.35,272.53C323.569,269.288 318.688,268.915 315.447,271.696C312.206,274.477 311.833,279.358 314.613,282.599C317.2,285.614 319.56,288.729 321.629,291.858C323.117,294.107 325.578,295.326 328.086,295.326ZM256.006,474.787C257.635,474.787 259.277,474.274 260.675,473.213C260.753,473.154 262.619,471.736 265.752,469.144C269.042,466.423 269.504,461.549 266.782,458.258C264.062,454.968 259.187,454.506 255.896,457.228C253.041,459.589 251.341,460.883 251.327,460.894C247.925,463.476 247.26,468.326 249.841,471.728C251.362,473.733 253.67,474.787 256.006,474.787ZM217.804,71.339C219.259,71.338 220.73,70.929 222.037,70.071C224.983,68.139 226.824,67.081 226.875,67.052C230.582,64.937 231.875,60.218 229.762,56.509C227.649,52.798 222.926,51.503 219.216,53.618C219.127,53.669 216.976,54.898 213.557,57.14C209.985,59.482 208.989,64.275 211.331,67.846C212.816,70.11 215.285,71.339 217.804,71.339ZM291.42,441.935C293.496,441.935 295.567,441.104 297.09,439.462C300.052,436.269 302.944,433.018 305.686,429.799C308.456,426.548 308.065,421.668 304.814,418.899C301.564,416.129 296.684,416.52 293.914,419.771C291.313,422.825 288.568,425.911 285.754,428.944C282.849,432.074 283.032,436.967 286.163,439.871C287.652,441.252 289.538,441.935 291.42,441.935Z"/>
                </g>
            </g>
        </g>
    </g>
</svg>
