<?xml version="1.0" encoding="UTF-8" standalone="no"?>
<!DOCTYPE svg PUBLIC "-//W3C//DTD SVG 1.1//EN" "http://www.w3.org/Graphics/SVG/1.1/DTD/svg11.dtd">
<svg width="100%" height="100%" viewBox="0 0 20 20" version="1.1" xmlns="http://www.w3.org/2000/svg" xmlns:xlink="http://www.w3.org/1999/xlink" xml:space="preserve" xmlns:serif="http://www.serif.com/" style="fill-rule:evenodd;clip-rule:evenodd;stroke-linejoin:round;stroke-miterlimit:2;">
    <g transform="matrix(1,0,0,1,-186.748,-26.8534)">
        <g transform="matrix(2.07264,0,0,1.55447,-22.0616,2.00508)">
            <g id="NavSettings-4Light" transform="matrix(0.482478,0,0,0.643304,46.1425,-1.14113)">
                <g id="Square" transform="matrix(2.18852,0,0,2.18852,-96.7516,-26.263)">
                    <rect x="95.921" y="24.165" width="9.139" height="9.139" style="fill:none;"/>
                </g>
                <g id="Setting" transform="matrix(0.5,0,0,0.52807,115.173,28.1692)">
                    <path d="M29.21,11.84C27.292,11.561 25.853,9.899 25.853,7.961C25.853,7.475 25.944,6.993 26.12,6.54C26.398,5.805 26.176,4.97 25.57,4.47C24.262,3.372 22.773,2.509 21.17,1.92C20.423,1.643 19.577,1.877 19.08,2.5C18.339,3.447 17.202,4.001 16,4.001C14.798,4.001 13.661,3.447 12.92,2.5C12.423,1.877 11.577,1.643 10.83,1.92C9.35,2.464 7.966,3.24 6.73,4.22C6.092,4.725 5.856,5.592 6.15,6.35C6.342,6.819 6.44,7.32 6.44,7.827C6.44,9.831 4.896,11.525 2.9,11.71C2.093,11.796 1.433,12.403 1.28,13.2C1.094,14.122 1,15.06 1,16C0.999,16.787 1.062,17.573 1.19,18.35C1.32,19.173 1.991,19.811 2.82,19.9C4.814,20.087 6.356,21.781 6.356,23.783C6.356,24.345 6.234,24.9 6,25.41C5.651,26.165 5.862,27.068 6.51,27.59C7.81,28.668 9.285,29.517 10.87,30.1C11.073,30.17 11.285,30.207 11.5,30.21C12.096,30.209 12.656,29.918 13,29.43C13.723,28.377 14.922,27.747 16.2,27.75C17.436,27.752 18.602,28.338 19.34,29.33C19.837,29.998 20.727,30.249 21.5,29.94C22.95,29.357 24.299,28.55 25.5,27.55C26.117,27.04 26.336,26.184 26.04,25.44C25.837,24.96 25.733,24.444 25.733,23.922C25.733,21.957 27.218,20.283 29.17,20.05C29.966,19.94 30.604,19.323 30.74,18.53C30.901,17.696 30.988,16.849 31,16C31,15.104 30.916,14.21 30.75,13.33C30.612,12.555 29.989,11.952 29.21,11.84ZM21,16C21,18.743 18.743,21 16,21C13.257,21 11,18.743 11,16C11,13.257 13.257,11 16,11C18.743,11 21,13.257 21,16Z" style="fill:none;fill-rule:nonzero;stroke:white;stroke-opacity:0.09;stroke-width:5.83px;"/>
                </g>
                <g id="Setting1" serif:id="Setting" transform="matrix(0.5,0,0,0.52807,115.173,28.1692)">
                    <path d="M29.21,11.84C27.292,11.561 25.853,9.899 25.853,7.961C25.853,7.475 25.944,6.993 26.12,6.54C26.398,5.805 26.176,4.97 25.57,4.47C24.262,3.372 22.773,2.509 21.17,1.92C20.423,1.643 19.577,1.877 19.08,2.5C18.339,3.447 17.202,4.001 16,4.001C14.798,4.001 13.661,3.447 12.92,2.5C12.423,1.877 11.577,1.643 10.83,1.92C9.35,2.464 7.966,3.24 6.73,4.22C6.092,4.725 5.856,5.592 6.15,6.35C6.342,6.819 6.44,7.32 6.44,7.827C6.44,9.831 4.896,11.525 2.9,11.71C2.093,11.796 1.433,12.403 1.28,13.2C1.094,14.122 1,15.06 1,16C0.999,16.787 1.062,17.573 1.19,18.35C1.32,19.173 1.991,19.811 2.82,19.9C4.814,20.087 6.356,21.781 6.356,23.783C6.356,24.345 6.234,24.9 6,25.41C5.651,26.165 5.862,27.068 6.51,27.59C7.81,28.668 9.285,29.517 10.87,30.1C11.073,30.17 11.285,30.207 11.5,30.21C12.096,30.209 12.656,29.918 13,29.43C13.723,28.377 14.922,27.747 16.2,27.75C17.436,27.752 18.602,28.338 19.34,29.33C19.837,29.998 20.727,30.249 21.5,29.94C22.95,29.357 24.299,28.55 25.5,27.55C26.117,27.04 26.336,26.184 26.04,25.44C25.837,24.96 25.733,24.444 25.733,23.922C25.733,21.957 27.218,20.283 29.17,20.05C29.966,19.94 30.604,19.323 30.74,18.53C30.901,17.696 30.988,16.849 31,16C31,15.104 30.916,14.21 30.75,13.33C30.612,12.555 29.989,11.952 29.21,11.84ZM21,16C21,18.743 18.743,21 16,21C13.257,21 11,18.743 11,16C11,13.257 13.257,11 16,11C18.743,11 21,13.257 21,16Z" style="fill-rule:nonzero;"/>
                </g>
            </g>
        </g>
    </g>
</svg>
