<?xml version="1.0" encoding="UTF-8" standalone="no"?>
<!DOCTYPE svg PUBLIC "-//W3C//DTD SVG 1.1//EN" "http://www.w3.org/Graphics/SVG/1.1/DTD/svg11.dtd">
<svg width="100%" height="100%" viewBox="0 0 52 52" version="1.1" xmlns="http://www.w3.org/2000/svg" xmlns:xlink="http://www.w3.org/1999/xlink" xml:space="preserve" xmlns:serif="http://www.serif.com/" style="fill-rule:evenodd;clip-rule:evenodd;stroke-linejoin:round;stroke-miterlimit:2;">
    <g transform="matrix(1,0,0,1,-5.75086,-4.64023)">
        <g transform="matrix(12.1029,0,0,4.58945,237.443,-14.5917)">
            <g id="Favicon" transform="matrix(0.52401,0,0,0.619954,-10.0077,-0.0925104)">
                <g id="Square" transform="matrix(0.152698,0,0,0.335793,-17.9226,5.5573)">
                    <rect x="3.198" y="4.024" width="53.696" height="54.427" style="fill:none;"/>
                </g>
                <g id="AzDoBoards" transform="matrix(0.157678,0,0,0.351463,-21.4328,5.37463)">
                    <g transform="matrix(1,0,0,1,27.0134,5.62059)">
                        <path d="M34.304,20.846C37.86,20.846 41.096,22.183 43.555,24.38L43.555,2.803C43.555,1.712 42.676,0.832 41.587,0.832L2.469,0.832C1.379,0.832 0.5,1.712 0.5,2.803L0.5,34.878C0.5,35.969 1.379,36.849 2.469,36.849L20.583,36.849C20.481,36.167 20.427,35.464 20.427,34.748C20.42,27.074 26.64,20.846 34.304,20.846Z" style="fill:none;fill-rule:nonzero;stroke:black;stroke-opacity:0.09;stroke-width:3px;"/>
                    </g>
                    <g transform="matrix(1,0,0,1,27.0134,5.62059)">
                        <path d="M34.304,20.846C37.86,20.846 41.096,22.183 43.555,24.38L43.555,2.803C43.555,1.712 42.676,0.832 41.587,0.832L2.469,0.832C1.379,0.832 0.5,1.712 0.5,2.803L0.5,34.878C0.5,35.969 1.379,36.849 2.469,36.849L20.583,36.849C20.481,36.167 20.427,35.464 20.427,34.748C20.42,27.074 26.64,20.846 34.304,20.846Z" style="fill-rule:nonzero;"/>
                    </g>
                    <g transform="matrix(1,0,0,1,27.0134,5.62059)">
                        <rect x="4.043" y="4.445" width="9.578" height="6.071" style="fill:white;fill-rule:nonzero;"/>
                    </g>
                    <g transform="matrix(1,0,0,1,27.0134,5.62059)">
                        <rect x="17.211" y="4.445" width="9.579" height="6.071" style="fill:white;fill-opacity:0.71;fill-rule:nonzero;"/>
                    </g>
                    <g transform="matrix(1,0,0,1,27.0134,5.62059)">
                        <rect x="4.043" y="14.065" width="9.578" height="6.071" style="fill:white;fill-opacity:0.71;fill-rule:nonzero;"/>
                    </g>
                    <g transform="matrix(1,0,0,1,27.0134,5.62059)">
                        <rect x="4.043" y="23.684" width="9.578" height="5.982" style="fill:white;fill-rule:nonzero;"/>
                    </g>
                    <g transform="matrix(1,0,0,1,27.0134,5.62059)">
                        <rect x="17.211" y="14.065" width="9.579" height="6.071" style="fill:white;fill-opacity:0.43;fill-rule:nonzero;"/>
                    </g>
                    <g transform="matrix(1,0,0,1,27.0134,5.62059)">
                        <rect x="30.406" y="4.445" width="9.578" height="6.071" style="fill:white;fill-rule:nonzero;"/>
                    </g>
                    <g transform="matrix(1,0,0,1,27.0134,5.62059)">
                        <path d="M43.553,34.876L43.553,24.385C41.101,22.189 37.858,20.852 34.302,20.852C26.638,20.852 20.418,27.073 20.418,34.754C20.418,35.47 20.473,36.166 20.575,36.855L41.585,36.855C42.675,36.848 43.553,35.968 43.553,34.876Z" style="fill-opacity:0.8;fill-rule:nonzero;"/>
                    </g>
                    <g transform="matrix(1,0,0,1,27.0134,5.62059)">
                        <path d="M43.557,24.385L43.557,34.883C43.557,35.968 42.678,36.854 41.588,36.854L20.578,36.854C21.586,43.533 27.35,48.655 34.305,48.655C41.976,48.649 48.189,42.427 48.189,34.747C48.189,30.626 46.398,26.929 43.557,24.385Z" style="fill:none;fill-rule:nonzero;stroke:black;stroke-opacity:0.09;stroke-width:3px;"/>
                    </g>
                    <g transform="matrix(1,0,0,1,27.0134,5.62059)">
                        <path d="M43.557,24.385L43.557,34.883C43.557,35.968 42.678,36.854 41.588,36.854L20.578,36.854C21.586,43.533 27.35,48.655 34.305,48.655C41.976,48.649 48.189,42.427 48.189,34.747C48.189,30.626 46.398,26.929 43.557,24.385Z" style="fill-opacity:0.5;fill-rule:nonzero;"/>
                    </g>
                    <g transform="matrix(1,0,0,1,27.0134,5.62059)">
                        <path d="M41.437,27.906L32.737,36.61L28.268,32.136L25.598,34.816L30.067,39.291L32.908,42.136L35.578,39.455L44.278,30.751L41.437,27.906Z" style="fill:white;fill-rule:nonzero;"/>
                    </g>
                </g>
            </g>
        </g>
    </g>
</svg>
