<?xml version="1.0" encoding="UTF-8" standalone="no"?>
<!DOCTYPE svg PUBLIC "-//W3C//DTD SVG 1.1//EN" "http://www.w3.org/Graphics/SVG/1.1/DTD/svg11.dtd">
<svg width="100%" height="100%" viewBox="0 0 56 56" version="1.1" xmlns="http://www.w3.org/2000/svg" xmlns:xlink="http://www.w3.org/1999/xlink" xml:space="preserve" xmlns:serif="http://www.serif.com/" style="fill-rule:evenodd;clip-rule:evenodd;stroke-linejoin:round;stroke-miterlimit:2;">
    <g transform="matrix(1,0,0,1,-5.750864,-4.640235)">
        <g transform="matrix(12.102871,0,0,4.589454,237.442625,-14.591662)">
            <g id="Favicon" transform="matrix(0.52401,0,0,0.619954,-10.007749,-0.09251)">
                <g id="Square" transform="matrix(0.164444,0,0,0.361624,-17.960193,5.453354)">
                    <rect x="3.198" y="4.024" width="53.696" height="54.427" style="fill:none;"/>
                </g>
                <g id="AzDoBoards" transform="matrix(0.157678,0,0,0.351463,-21.117425,6.077559)">
                    <g transform="matrix(1,0,0,1,27.013358,5.620586)">
                        <path d="M34.304,20.846C37.86,20.846 41.096,22.183 43.555,24.38L43.555,2.803C43.555,1.712 42.676,0.832 41.587,0.832L2.469,0.832C1.379,0.832 0.5,1.712 0.5,2.803L0.5,34.878C0.5,35.969 1.379,36.849 2.469,36.849L20.583,36.849C20.481,36.167 20.427,35.464 20.427,34.748C20.42,27.074 26.64,20.846 34.304,20.846Z" style="fill:none;fill-rule:nonzero;stroke:black;stroke-opacity:0.09;stroke-width:3px;"/>
                    </g>
                    <g transform="matrix(1,0,0,1,27.013358,5.620586)">
                        <path d="M34.304,20.846C37.86,20.846 41.096,22.183 43.555,24.38L43.555,2.803C43.555,1.712 42.676,0.832 41.587,0.832L2.469,0.832C1.379,0.832 0.5,1.712 0.5,2.803L0.5,34.878C0.5,35.969 1.379,36.849 2.469,36.849L20.583,36.849C20.481,36.167 20.427,35.464 20.427,34.748C20.42,27.074 26.64,20.846 34.304,20.846Z" style="fill-rule:nonzero;"/>
                    </g>
                    <g transform="matrix(1,0,0,1,27.013358,5.620586)">
                        <rect x="4.043" y="4.445" width="9.578" height="6.071" style="fill:white;fill-rule:nonzero;"/>
                    </g>
                    <g transform="matrix(1,0,0,1,27.013358,5.620586)">
                        <rect x="17.211" y="4.445" width="9.579" height="6.071" style="fill:white;fill-opacity:0.71;fill-rule:nonzero;"/>
                    </g>
                    <g transform="matrix(1,0,0,1,27.013358,5.620586)">
                        <rect x="4.043" y="14.065" width="9.578" height="6.071" style="fill:white;fill-opacity:0.71;fill-rule:nonzero;"/>
                    </g>
                    <g transform="matrix(1,0,0,1,27.013358,5.620586)">
                        <rect x="4.043" y="23.684" width="9.578" height="5.982" style="fill:white;fill-rule:nonzero;"/>
                    </g>
                    <g transform="matrix(1,0,0,1,27.013358,5.620586)">
                        <rect x="17.211" y="14.065" width="9.579" height="6.071" style="fill:white;fill-opacity:0.43;fill-rule:nonzero;"/>
                    </g>
                    <g transform="matrix(1,0,0,1,27.013358,5.620586)">
                        <rect x="30.406" y="4.445" width="9.578" height="6.071" style="fill:white;fill-rule:nonzero;"/>
                    </g>
                    <g transform="matrix(1,0,0,1,27.013358,5.620586)">
                        <path d="M43.553,34.876L43.553,24.385C41.101,22.189 37.858,20.852 34.302,20.852C26.638,20.852 20.418,27.073 20.418,34.754C20.418,35.47 20.473,36.166 20.575,36.855L41.585,36.855C42.675,36.848 43.553,35.968 43.553,34.876Z" style="fill-opacity:0.8;fill-rule:nonzero;"/>
                    </g>
                    <g transform="matrix(1,0,0,1,27.013358,5.620586)">
                        <path d="M43.557,24.385L43.557,34.883C43.557,35.968 42.678,36.854 41.588,36.854L20.578,36.854C21.586,43.532 27.35,48.655 34.305,48.655C41.976,48.649 48.189,42.427 48.189,34.746C48.189,30.626 46.398,26.929 43.557,24.385Z" style="fill:none;fill-rule:nonzero;stroke:black;stroke-opacity:0.09;stroke-width:3px;"/>
                    </g>
                    <g transform="matrix(1,0,0,1,27.013358,5.620586)">
                        <path d="M43.557,24.385L43.557,34.883C43.557,35.968 42.678,36.854 41.588,36.854L20.578,36.854C21.586,43.532 27.35,48.655 34.305,48.655C41.976,48.649 48.189,42.427 48.189,34.746C48.189,30.626 46.398,26.929 43.557,24.385Z" style="fill-opacity:0.5;fill-rule:nonzero;"/>
                    </g>
                    <g transform="matrix(1,0,0,1,27.013358,5.620586)">
                        <path d="M41.437,27.906L32.737,36.61L28.268,32.136L25.598,34.816L30.067,39.291L32.907,42.136L35.578,39.455L44.278,30.751L41.437,27.906Z" style="fill:white;fill-rule:nonzero;"/>
                    </g>
                </g>
                <g id="Shadow" transform="matrix(0.157678,0,0,0.351463,-16.858006,8.052988)">
                    <path d="M46.255,23.24C49.123,26.222 50.889,30.276 50.889,34.746C50.889,43.919 43.469,51.347 34.308,51.355L34.305,51.355C26.812,51.355 20.478,46.378 18.423,39.549L2.469,39.549L1.531,39.455L0.651,39.182L-0.145,38.75L-0.835,38.181L-1.404,37.49L-1.834,36.695L-2.106,35.814L-2.2,34.878L-2.2,2.803L-2.106,1.867L-1.834,0.987L-1.404,0.191L-0.835,-0.5L-0.145,-1.069L0.651,-1.501L1.531,-1.773L2.469,-1.868L41.586,-1.868L42.524,-1.773L43.405,-1.501L44.2,-1.069L44.89,-0.5L45.459,0.191L45.889,0.987L46.161,1.867L46.255,2.803L46.255,23.24ZM19.196,36.849C19.635,38.151 20.51,39.454 20.574,39.549L20.575,39.551C20.584,39.492 20.686,38.771 20.771,37.874C20.857,38.248 20.958,38.616 21.072,38.978L20.576,39.553L20.578,39.554L21.073,38.979C22.858,44.589 28.108,48.655 34.305,48.655C41.976,48.649 48.189,42.427 48.189,34.746C48.189,30.626 46.398,26.929 43.557,24.385L43.557,34.883C43.557,35.968 42.678,36.854 41.588,36.854C42.676,36.846 43.553,35.967 43.553,34.876L43.553,24.385C41.101,22.189 37.858,20.852 34.302,20.852C30.427,20.852 26.921,22.442 24.401,25.008C26.92,22.44 30.427,20.846 34.304,20.846C37.86,20.846 41.096,22.183 43.555,24.38L43.555,2.803C43.555,1.712 42.677,0.832 41.586,0.832L2.469,0.832C1.379,0.832 0.5,1.712 0.5,2.803L0.5,34.878C0.5,35.969 1.379,36.849 2.469,36.849L19.196,36.849Z" style="fill:white;fill-opacity:0.37;"/>
                </g>
            </g>
        </g>
    </g>
</svg>
